<svg width="170" height="65" viewBox="0 0 2048 605" fill="none" xmlns="http://www.w3.org/2000/svg">
<path transform="translate(1361,29)" d="m0 0 15 2 72 14 24 6 23 8 21 10 12 8 10 8 10 9 11 14 9 16 7 21 3 16 1 12v11l-2 21-5 24-5 17-8 18-8 14-10 13-14 14-16 11-19 9-18 5-23 3h-22l-27-3-84-16-10-3-2-3 1-13 23-120 16-84 11-57zm56 60-3 8-8 43-11 57-14 73v6l8 3 20 3h27l17-4 16-8 10-9 7-8 8-14 7-19 5-22 2-13v-30l-4-16-6-12-9-11-14-10-17-8-18-5-17-4z" fill="#000000"/>
<path transform="translate(1140,8)" d="m0 0h24l22 3 18 5 14 6 16 10 14 12 9 10 10 15 9 19 6 21 3 16 1 9v34l-3 24-5 20-7 19-8 15-10 14-11 12-11 9-13 8-13 6-16 5-17 3-12 1h-11l-20-2-19-4-19-7-16-9-10-8-10-9-10-12-10-17-8-20-5-22-2-16v-31l3-24 5-21 7-19 10-19 9-12 9-10 10-9 15-10 13-6 15-5 15-3zm11 47-16 3-12 6-12 12-9 17-6 21-4 27-1 14v32l3 22 5 16 7 12 7 7 10 6 11 4 14 2h10l12-2 10-4 8-6 8-8 8-15 5-16 4-22 2-20v-39l-3-20-5-17-7-12-10-10-12-6-11-3-7-1z" fill="#000000"/>
<path transform="translate(843,11)" d="m0 0h20l22 3 16 5 19 9 14 10 11 10 9 11 9 14 8 16 8 24 4 19 2 19v32l-3 22-6 21-7 16-10 16-9 10-5 5-10 9-13 8-12 6-18 6-21 4-12 1h-18l-17-2-16-4-18-7-16-10-13-11-10-11-10-15-8-16-6-17-5-21-3-23v-34l3-21 5-19 9-21 7-11 7-9 11-12 13-10 14-8 14-6 19-5zm-4 48-12 3-12 6-9 8-7 11-5 12-3 15-2 23v11l3 36 5 25 6 17 6 11 9 10 10 7 12 4 6 1h16l14-3 10-4 8-6 7-7 5-8 6-18 2-13 1-13v-18l-3-32-5-26-5-15-7-14-9-11-10-7-10-4-5-1z" fill="#000000"/>
<path transform="translate(300,367)" d="m0 0h126l19 3 21 7 14 8 12 11 6 7 6 10 5 11 4 15 1 9v22l-3 17-6 15-8 12-9 10-13 9-8 4 2 4 7 7 11 15 9 10 9 6 9 3 17 1 1 1v40l-16 2h-16l-16-3-12-5-9-7-9-9-10-15-9-16-9-13-8-7-2-1h-42v32h35v42h-108l-1-1v-40h28v-175l-2 1h-25l-1-1zm74 42v100h47l13-3 12-6 9-8 5-9 4-11 1-7v-13l-3-14-5-10-6-7-11-7-13-4-6-1z" fill="#ff4d00"/>
<path transform="translate(1766,367)" d="m0 0h125l19 3 17 5 17 9 11 9 8 9 8 13 5 14 3 14 1 11v9l-2 17-4 14-7 14-7 9-9 9-14 9-5 3 8 8 14 19 6 7 10 7 9 3 18 1 1 3v37l-6 2-10 1h-15l-14-2-13-5-11-7-7-7-10-14-12-21-8-11-7-7-4-2h-15l-26 1v31h34l1 1v41h-109v-41l2-1h25v-173h-26l-1-1zm73 42v100h47l16-4 11-6 5-4 7-10 4-11 1-5v-21l-3-11-5-10-8-8-14-7-14-3z" fill="#ff4d00"/>
<path transform="translate(1208,367)" d="m0 0h96v42h-22v62l-1 21 5-5 9-10 9-11 12-13 9-11 11-12 9-11 8-9-17-1v-42h106v42l-33 1-9 11-13 14-9 11-12 13-9 11-12 13-7 8-9 10 2 4 26 26 2 1v2l4 2 42 42 2 1v2l5 1 30 1v41h-106v-42l14-1-12-12-8-7-28-28-8-7-11-11-1 66h21l1 1v41h-96v-41l27-1 1-173h-28z" fill="#ff4d00"/>
<path transform="translate(651,35)" d="m0 0h8l3 9 6 31-1 6-5 3-117 24-8 3 1 9 11 54 1 5 14-2 70-14 8-1 3 3 5 23 3 15-1 5-7 3-78 16-6 2 1 10 19 94v7l-3 3-9 3-40 8-11 1-3-3-5-22-27-134-18-88-5-25v-7l1-2 21-5 124-25z" fill="#000000"/>
<path transform="translate(1499,367)" d="m0 0h196v70h-39v-29l-9 1h-74v72h62l1 39-1 1h-62v62l22-1h60l1-28h39v70h-196v-41h28v-175l-2 1h-25l-1-1z" fill="#ff4d00"/>
<path transform="translate(700,367)" d="m0 0h22l7 15 9 20 16 36 17 37 8 18 13 29 14 31 12 27v2l28 1 1 41h-97v-40l1-2 18-1-10-23v-2h-98l-3 10-7 16h20l1 1v41h-100l-33-22-1-1v-5l5 2 16 10 15 10 2 1-1-3v-32l1-2h28l2-6 18-40 13-29 36-80 16-36zm9 77-12 29-19 44v3h65l-3-9-19-44-9-22z" fill="#ff4d00"/>
<path transform="translate(1017,362)" d="m0 0 22 1 19 3 16 6 11 7 7 8 1 2-1-22h41v87h-41l-4-14-5-10-5-6-13-9-12-5-13-3h-27l-17 4-16 8-9 7-5 5-7 8-8 15-5 16-2 10-1 20 2 15 5 16 8 15 8 10 9 9 14 9 13 6 15 4 7 1h22l22-3 17-4 17-6 6-3h3l10 27 3 9-1 4-18 8-15 5-24 5-21 2h-13l-22-2-22-5-14-5-17-8-16-11-13-12-9-10-10-15-7-15-5-15-3-15-1-12v-17l2-18 6-21 8-18 10-16 12-14 7-7 16-12 17-9 17-6 16-3z" fill="#ff4d00"/>
<path transform="translate(9,367)" d="m0 0h217v70h-39l-1-28h-45l1 173 27 1 1 41h-103v-41l2-1 26 1-1-174h-46v28h-39z" fill="#ff4d00"/>
<path transform="translate(964,442)" d="m0 0 5 2 16 10 16 11 1 3-3 3-25-16-12-8 1-4z" fill="#ff4d00"/>
<path transform="translate(1377,456)" d="m0 0 4 1 19 12 15 10-2 4-2 1-36-24z" fill="#ff4d00"/>
<path transform="translate(507,510)" d="m0 0 4 1 16 10 18 12-2 5-5-2-33-22z" fill="#ff4d00"/>
<path transform="translate(980,426)" d="m0 0 5 2 32 21-1 4-6-1-33-22 1-3z" fill="#ff4d00"/>
<path transform="translate(1407,422)" d="m0 0 5 2 31 21v4l-3 1-25-16-11-8z" fill="#ff4d00"/>
<path transform="translate(1973,509)" d="m0 0 12 7 25 17v3l-3 2-23-15-13-9 1-4z" fill="#ff4d00"/>
<path transform="translate(958,451)" d="m0 0 8 4 20 13 10 7-1 5-5-2-33-22z" fill="#ff4d00"/>
<path transform="translate(1110,620)" d="m0 0h6l10 6 24 16v2l-6 1-16-10-15-10-4-4z" fill="#ff4d00"/>
<path transform="translate(1957,527)" d="m0 0 6 1 33 22-2 4-4-1-34-22z" fill="#ff4d00"/>
<path transform="translate(951,473)" d="m0 0 5 2 11 7 21 14v5h-3l-25-16-10-7z" fill="#ff4d00"/>
<path transform="translate(1985,465)" d="m0 0 5 2 22 14 10 7v6l-5-2-32-21z" fill="#ff4d00"/>
<path transform="translate(520,465)" d="m0 0 5 2 27 18 5 4v5l-5-2-16-10-16-11z" fill="#ff4d00"/>
<path transform="translate(972,433)" d="m0 0 11 7 23 15 3 2-2 4h-3l-33-22-2-1 1-4z" fill="#ff4d00"/>
<path transform="translate(950,512)" d="m0 0 5 2 18 11 13 9v7l-7-4-27-18-2-3z" fill="#ff4d00"/>
<path transform="translate(1363,472)" d="m0 0 11 6 10 7 16 11-2 4-4-1-33-22v-3z" fill="#ff4d00"/>
<path transform="translate(949,485)" d="m0 0 6 2 21 14 10 7v6l-4-2-16-10-16-11-1-1z" fill="#ff4d00"/>
<path transform="translate(1391,439)" d="m0 0 5 1 34 23-3 4-4-2-16-10-16-11-1-3z" fill="#ff4d00"/>
<path transform="translate(1099,624)" d="m0 0 5 1 16 10 15 10 2 1v2l-7 1-19-12-12-8-2-4z" fill="#ff4d00"/>
<path transform="translate(492,527)" d="m0 0 5 1 17 11 15 10 2 3-2 2-5-1-33-22v-3z" fill="#ff4d00"/>
<path transform="translate(512,500)" d="m0 0 4 1 19 12 15 10-1 5-5-2-16-10-12-8-5-3z" fill="#ff4d00"/>
<path transform="translate(1348,489)" d="m0 0 5 2 26 17 7 5-3 4-5-2-31-21v-4z" fill="#ff4d00"/>
<path transform="translate(380,465)" d="m0 0 5 2 30 20 2 2v5l-5-2-16-10-16-11z" fill="#ff4d00"/>
<path transform="translate(1399,430)" d="m0 0 8 4 30 20-2 4-4-1-16-10-16-11-2-3z" fill="#ff4d00"/>
<path transform="translate(1413,415)" d="m0 0 6 1 22 14 11 8-4 4-25-16-11-8z" fill="#ff4d00"/>
<path transform="translate(415,607)" d="m0 0 5 2 25 16 7 5v6l-5-2-30-20-2-2z" fill="#ff4d00"/>
<path transform="translate(519,477)" d="m0 0 9 5 24 16 4 4v4l-4-1-16-10-18-12z" fill="#ff4d00"/>
<path transform="translate(1701,422)" d="m0 0 5 2 30 20 2 2v6l-11-7-16-10-9-6z" fill="#ff4d00"/>
<path transform="translate(853,623)" d="m0 0 9 5 27 18 1 6-4-1-33-21z" fill="#ff4d00"/>
<path transform="translate(516,489)" d="m0 0 5 2 16 10 16 11v5h-3l-35-23z" fill="#ff4d00"/>
<path transform="translate(1123,614)" d="m0 0 5 1 18 11 15 10v3l-5 1-17-11-18-12z" fill="#ff4d00"/>
<path transform="translate(678,601)" d="m0 0 5 2 16 10 15 10 1 1v6l-9-5-20-13-8-6z" fill="#ff4d00"/>
<path transform="translate(1982,489)" d="m0 0 5 2 30 20 2 2-1 5-7-4-30-20z" fill="#ff4d00"/>
<path transform="translate(1355,481)" d="m0 0 6 2 27 18 5 3-1 4h-4l-26-17-9-6z" fill="#ff4d00"/>
<path transform="translate(1370,464)" d="m0 0 5 2 33 22-3 4-4-2-16-10-16-11v-4z" fill="#ff4d00"/>
<path transform="translate(380,452)" d="m0 0 5 2 27 18 5 4v5l-5-2-23-15-9-6z" fill="#ff4d00"/>
<path transform="translate(380,439)" d="m0 0 5 2 25 16 6 4 1 7-5-2-30-20-2-2z" fill="#ff4d00"/>
<path transform="translate(380,426)" d="m0 0 5 2 16 10 16 11v6l-5-2-31-21-1-1z" fill="#ff4d00"/>
<path transform="translate(1702,409)" d="m0 0 9 5 27 18v6l-5-2-20-13-11-7z" fill="#ff4d00"/>
<path transform="translate(1881,594)" d="m0 0 5 2 23 15 8 5 1 7-5-2-30-20-2-2z" fill="#ff4d00"/>
<path transform="translate(147,525)" d="m0 0 4 1 33 22v6l-5-2-25-17-6-4z" fill="#ff4d00"/>
<path transform="translate(147,498)" d="m0 0 5 2 31 21 1 1v6l-9-5-22-15-5-3z" fill="#ff4d00"/>
<path transform="translate(1984,477)" d="m0 0 5 2 31 21 1 1v5l-4-1-33-22z" fill="#ff4d00"/>
<path transform="translate(1846,465)" d="m0 0 9 5 27 18 1 6-4-1-20-13-12-8-1-1z" fill="#ff4d00"/>
<path transform="translate(953,462)" d="m0 0 5 1 23 15 10 7 1 2-1 3-4-1-17-11-12-8-5-4z" fill="#ff4d00"/>
<path transform="translate(148,432)" d="m0 0 11 7 24 16 1 1v6l-9-5-27-18-1-6z" fill="#ff4d00"/>
<path transform="translate(1702,396)" d="m0 0 9 5 27 18v6l-5-2-30-20-1-1z" fill="#ff4d00"/>
<path transform="translate(416,620)" d="m0 0 9 5 25 17 2 2v5l-5-2-23-15-9-7z" fill="#ff4d00"/>
<path transform="translate(1881,607)" d="m0 0 5 2 30 20 2 2v5l-5-2-20-13-12-8z" fill="#ff4d00"/>
<path transform="translate(1978,500)" d="m0 0 5 2 16 10 16 11-1 5-5-2-33-22z" fill="#ff4d00"/>
<path transform="translate(949,498)" d="m0 0 5 2 20 13 11 7v7l-12-7-24-16z" fill="#ff4d00"/>
<path transform="translate(1340,497)" d="m0 0 5 2 29 19 4 3-2 4-5-2-20-13-12-8-1-2z" fill="#ff4d00"/>
<path transform="translate(1846,452)" d="m0 0 9 5 17 11 10 7 1 6-4-1-33-22z" fill="#ff4d00"/>
<path transform="translate(1139,451)" d="m0 0 9 5 27 18 1 6-4-1-22-14-11-8z" fill="#ff4d00"/>
<path transform="translate(1384,447)" d="m0 0 5 2 19 12 14 10-1 4-5-2-18-11-15-10v-3z" fill="#ff4d00"/>
<path transform="translate(1846,439)" d="m0 0 5 2 30 20 2 3-1 4-9-5-27-18z" fill="#ff4d00"/>
<path transform="translate(1702,435)" d="m0 0 11 7 24 16 1 1v6l-9-5-27-18z" fill="#ff4d00"/>
<path transform="translate(1846,426)" d="m0 0 5 2 20 13 10 7 2 3-1 4-9-5-27-18z" fill="#ff4d00"/>
<path transform="translate(1310,622)" d="m0 0 5 2 30 20 2 2v5l-5-2-30-20-2-2z" fill="#ff4d00"/>
<path transform="translate(538,609)" d="m0 0 5 2 16 10 16 11v6l-11-6-15-10-11-8z" fill="#ff4d00"/>
<path transform="translate(415,594)" d="m0 0 5 2 16 10 16 11v6l-4-2-16-10-16-11z" fill="#ff4d00"/>
<path transform="translate(148,511)" d="m0 0 11 7 24 16 1 1v6l-9-5-24-16-4-4z" fill="#ff4d00"/>
<path transform="translate(520,452)" d="m0 0 5 2 30 20 2 7-5-2-17-11-13-9-2-2z" fill="#ff4d00"/>
<path transform="translate(989,420)" d="m0 0 5 1 22 14 12 8-3 3-5-1-33-22v-2z" fill="#ff4d00"/>
<path transform="translate(232,383)" d="m0 0 5 2 20 13 11 7 1 7-5-2-15-10-17-11z" fill="#ff4d00"/>
<path transform="translate(678,614)" d="m0 0 5 2 25 16 7 5v6l-11-6-18-12-8-6z" fill="#ff4d00"/>
<path transform="translate(176,609)" d="m0 0 9 5 27 18v6l-5-2-15-10-16-10-1-6z" fill="#ff4d00"/>
<path transform="translate(2e3 609)" d="m0 0 5 2 30 20 2 3-1 4-12-7-24-16z" fill="#ff4d00"/>
<path transform="translate(1701,594)" d="m0 0 5 2 16 10 15 10 1 1v6l-11-6-25-17z" fill="#ff4d00"/>
<path transform="translate(664,566)" d="m0 0 5 1 29 19 4 3-1 5-5-2-11-7-6-4-1-5h-7l-8-6z" fill="#ff4d00"/>
<path transform="translate(1966,518)" d="m0 0 8 4 30 20-2 4-4-1-33-22v-4z" fill="#ff4d00"/>
<path transform="translate(147,459)" d="m0 0 5 2 19 12 13 9v6l-5-2-25-17-6-4z" fill="#ff4d00"/>
<path transform="translate(1579,434)" d="m0 0 8 4 26 17 3 3v5l-5-2-29-19-3-2z" fill="#ff4d00"/>
<path transform="translate(232,409)" d="m0 0 4 2 16 10 15 10 2 3v4l-5-2-22-14-10-7z" fill="#ff4d00"/>
<path transform="translate(1139,399)" d="m0 0 5 2 30 20 2 2v5l-5-2-15-10-17-11z" fill="#ff4d00"/>
<path transform="translate(232,396)" d="m0 0 5 2 30 20 2 3v4l-5-2-20-13-12-8z" fill="#ff4d00"/>
<path transform="translate(1068,632)" d="m0 0h6l12 7 12 8 10 7v1h-9l-16-10-16-11z" fill="#ff4d00"/>
<path transform="translate(1579,540)" d="m0 0 5 2 16 10 15 10 1 1v6l-9-5-27-18-1-1z" fill="#ff4d00"/>
<path transform="translate(147,472)" d="m0 0 5 2 20 13 12 8v6l-5-2-15-10-16-11z" fill="#ff4d00"/>
<path transform="translate(1986,452)" d="m0 0 8 4 27 18 1 7-5-2-31-21z" fill="#ff4d00"/>
<path transform="translate(147,446)" d="m0 0 4 1 26 17 7 5v6l-4-2-14-9-15-10-4-4z" fill="#ff4d00"/>
<path transform="translate(519,438)" d="m0 0 5 2 29 19 2 7-4-1-25-16-6-4z" fill="#ff4d00"/>
<path transform="translate(232,422)" d="m0 0 9 5 27 18 1 6-4-1-23-15-10-7z" fill="#ff4d00"/>
<path transform="translate(1579,421)" d="m0 0 5 2 23 15 8 5 1 7-5-2-30-20-2-2z" fill="#ff4d00"/>
<path transform="translate(1881,621)" d="m0 0 4 1 16 10 16 11 1 1v5l-5-2-19-12-13-9z" fill="#ff4d00"/>
<path transform="translate(853,610)" d="m0 0 4 2 16 10 15 10 1 1v6l-9-5-27-18z" fill="#ff4d00"/>
<path transform="translate(1702,581)" d="m0 0 5 2 30 20 1 1v6l-9-5-27-18z" fill="#ff4d00"/>
<path transform="translate(1288,555)" d="m0 0 5 2 27 18 4 3 1 5-2 1-33-22-2-1-1-5z" fill="#ff4d00"/>
<path transform="translate(501,518)" d="m0 0 12 7 25 17-1 4-5-1-33-22v-4z" fill="#ff4d00"/>
<path transform="translate(1139,412)" d="m0 0 5 2 30 20 2 7-4-1-33-22z" fill="#ff4d00"/>
<path transform="translate(1448,397)" d="m0 0 5 2 16 10 15 10 1 6h-3l-33-22-1-1z" fill="#ff4d00"/>
<path transform="translate(1702,383)" d="m0 0 5 2 27 18 4 3v6l-9-5-27-18z" fill="#ff4d00"/>
<path transform="translate(1448,621)" d="m0 0 5 2 16 10 15 10 1 6-4-1-22-14-11-8z" fill="#ff4d00"/>
<path transform="translate(176,596)" d="m0 0 11 6 10 7 15 10v6l-4-2-16-10-16-11-1-5z" fill="#ff4d00"/>
<path transform="translate(2e3 596)" d="m0 0 5 2 26 17 6 5-1 5-11-7-16-10-9-7z" fill="#ff4d00"/>
<path transform="translate(147,551)" d="m0 0 5 2 30 20 2 2v5l-5-2-27-18-5-5z" fill="#ff4d00"/>
<path transform="translate(147,538)" d="m0 0 5 2 20 13 12 8v6l-5-2-31-21z" fill="#ff4d00"/>
<path transform="translate(1139,438)" d="m0 0 9 5 27 18 1 1v5l-5-2-22-14-10-7z" fill="#ff4d00"/>
<path transform="translate(1984,438)" d="m0 0 4 1 23 15 8 6 1 6-5-2-23-15-7-5z" fill="#ff4d00"/>
<path transform="translate(232,436)" d="m0 0 5 2 16 10 15 10 1 6-4-1-19-12-14-10z" fill="#ff4d00"/>
<path transform="translate(380,415)" d="m0 0 7 1 22 14 8 6v6l-4-2-20-13-12-8z" fill="#ff4d00"/>
<path transform="translate(147,485)" d="m0 0 5 2 18 12 13 9 1 1v6l-11-7-24-16-2-3z" fill="#ff4d00"/>
<path transform="translate(1139,425)" d="m0 0 11 6 15 10 10 7 1 1v5l-5-2-29-19-3-2z" fill="#ff4d00"/>
<path transform="translate(1448,607)" d="m0 0 9 5 27 18 1 6-4-1-33-22z" fill="#ff4d00"/>
<path transform="translate(853,597)" d="m0 0 5 2 31 21 1 5-2 1-23-15-12-8z" fill="#ff4d00"/>
<path transform="translate(1642,515)" d="m0 0 5 2 30 20 2 6-5-1-29-19-3-2z" fill="#ff4d00"/>
<path transform="translate(1642,502)" d="m0 0 5 2 31 20v6l-5-2-25-16-6-4z" fill="#ff4d00"/>
<path transform="translate(1139,385)" d="m0 0 9 5 27 18 1 6-4-1-23-15-10-7z" fill="#ff4d00"/>
<path transform="translate(1448,383)" d="m0 0 9 5 27 18 1 6-4-1-33-22z" fill="#ff4d00"/>
<path transform="translate(1050,634)" d="m0 0h7l18 11 15 10v2h-8l-16-10-16-11z" fill="#ff4d00"/>
<path transform="translate(1948,534)" d="m0 0 5 1 19 12 15 10-1 3-3 1-16-10-19-13z" fill="#ff4d00"/>
<path transform="translate(1579,447)" d="m0 0 11 6 25 17 1 4-3 1-18-11-16-11z" fill="#ff4d00"/>
<path transform="translate(176,622)" d="m0 0 30 19 6 5v5l-5-2-23-15-8-6z" fill="#ff4d00"/>
<path transform="translate(1448,595)" d="m0 0 6 2 30 20 1 6-4-1-33-22z" fill="#ff4d00"/>
<path transform="translate(1288,542)" d="m0 0 5 2 30 20 2 4-2 3-18-12-16-11-1-1z" fill="#ff4d00"/>
<path transform="translate(538,622)" d="m0 0 5 2 30 20 2 2v5l-8-4-28-19-1-1z" fill="#ff4d00"/>
<path transform="translate(1701,568)" d="m0 0 5 1 27 18 5 4v6l-11-7-24-16-2-3z" fill="#ff4d00"/>
<path transform="translate(1579,528)" d="m0 0 5 1 18 11 14 10v5l-4-1-27-18-5-3z" fill="#ff4d00"/>
<path transform="translate(1e3 415)" d="m0 0 5 1 16 10 15 10 2 1-1 3-5 1-11-8-20-13-3-2v-2z" fill="#ff4d00"/>
<path transform="translate(1702,607)" d="m0 0 9 5 27 18v6l-9-5-23-15-4-3-1-5z" fill="#ff4d00"/>
<path transform="translate(483,534)" d="m0 0 5 1 33 22-2 4-7-3-30-20-1-3z" fill="#ff4d00"/>
<path transform="translate(147,420)" d="m0 0 5 1 15 10 13 9 4 4v5l-7-4-15-10-14-10z" fill="#ff4d00"/>
<path transform="translate(1846,415)" d="m0 0 6 1 18 11 12 8 1 6h-3l-33-22z" fill="#ff4d00"/>
<path transform="translate(679,627)" d="m0 0 9 5 25 17 2 3-5 1-14-8-15-10-4-4z" fill="#ff4d00"/>
<path transform="translate(2e3 622)" d="m0 0 4 2 16 10 16 11 1 6-5-2-30-20-2-2z" fill="#ff4d00"/>
<path transform="translate(1642,489)" d="m0 0 5 2 30 20 1 1v5l-5-2-20-13-10-7-1-1z" fill="#ff4d00"/>
<path transform="translate(1691,630)" d="m0 0 8 1 9 5 18 12 5 4-1 1-9-1-22-14-8-6z" fill="#ff4d00"/>
<path transform="translate(1448,410)" d="m0 0 5 2 30 20 2 2v3l-6-1-23-15-8-6z" fill="#ff4d00"/>
<path transform="translate(54,437)" d="m0 0 5 2 29 19 1 6h-3l-30-20-2-2z" fill="#ff4d00"/>
<path transform="translate(404,630)" d="m0 0 9 1 16 10 15 10v2h-7l-15-9-16-11z" fill="#ff4d00"/>
<path transform="translate(1124,587)" d="m0 0 5 2 25 16 4 4v6l-11-7-21-14-2-4z" fill="#ff4d00"/>
<path transform="translate(1870,630)" d="m0 0 9 1 23 15 8 5v2h-8l-22-14-10-7z" fill="#ff4d00"/>
<path transform="translate(54,424)" d="m0 0 5 2 26 17 4 3v5l-4-1-17-11-12-8-2-2z" fill="#ff4d00"/>
<path transform="translate(1083,629)" d="m0 0h6l12 7 15 10 7 5-2 2h-5l-17-11-16-11z" fill="#ff4d00"/>
<path transform="translate(1702,620)" d="m0 0 9 5 25 17 2 2v5l-9-5-27-18z" fill="#ff4d00"/>
<path transform="translate(1139,374)" d="m0 0 5 2 20 13 11 8 1 5-4-1-23-15-10-7z" fill="#ff4d00"/>
<path transform="translate(955,528)" d="m0 0 5 2 15 10 13 9 2 7-5-2-17-11-10-7-3-6z" fill="#ff4d00"/>
<path transform="translate(1437,630)" d="m0 0 8 1 16 10 15 10v2h-7l-18-11-14-10z" fill="#ff4d00"/>
<path transform="translate(1014,412)" d="m0 0 8 1 29 19 3 3-7 1-16-10-15-10z" fill="#ff4d00"/>
<path transform="translate(838,630)" d="m0 0 10 2 12 8 17 11v2l-9-1-18-11-11-8z" fill="#ff4d00"/>
<path transform="translate(817,630)" d="m0 0 9 1 23 15 8 5v2h-7l-9-5-24-16z" fill="#ff4d00"/>
<path transform="translate(1687,443)" d="m0 0 9 1 23 15 8 5-3 2-7-1-30-20z" fill="#ff4d00"/>
<path transform="translate(1448,372)" d="m0 0 5 2 30 20 2 3-1 4-11-7-25-17z" fill="#ff4d00"/>
<path transform="translate(507,632)" d="m0 0h8l16 10 15 10v2l-9-1-16-10-14-9z" fill="#ff4d00"/>
<path transform="translate(1671,631)" d="m0 0h8l16 10 15 10 1 2h-7l-8-4-24-16z" fill="#ff4d00"/>
<path transform="translate(385,630)" d="m0 0 10 2 20 13 9 6v2h-7l-18-11-14-10z" fill="#ff4d00"/>
<path transform="translate(781,484)" d="m0 0 5 2 27 18 3 8-5-2-25-17-4-5z" fill="#ff4d00"/>
<path transform="translate(380,478)" d="m0 0 9 5 27 18v2h-7l-22-14-7-5z" fill="#ff4d00"/>
<path transform="translate(217,443)" d="m0 0 9 1 18 11 13 9v1h-9l-22-14-9-7z" fill="#ff4d00"/>
<path transform="translate(1973,632)" d="m0 0h8l23 15 8 5v2l-10-1-29-19z" fill="#ff4d00"/>
<path transform="translate(1631,631)" d="m0 0h8l16 10 15 10 1 2h-8l-18-11-14-10z" fill="#ff4d00"/>
<path transform="translate(1531,630)" d="m0 0 10 2 23 15 6 4v2h-7l-18-11-14-10z" fill="#ff4d00"/>
<path transform="translate(365,630)" d="m0 0 10 2 20 13 10 7v1h-8l-18-11-14-10z" fill="#ff4d00"/>
<path transform="translate(1356,630)" d="m0 0 9 1 19 12 11 8 1 2h-7l-15-9-18-12z" fill="#ff4d00"/>
<path transform="translate(658,630)" d="m0 0 9 2 16 10 12 8 2 3h-7l-11-6-19-13-3-3z" fill="#ff4d00"/>
<path transform="translate(345,630)" d="m0 0 10 2 26 17 3 2v2h-7l-15-9-17-12z" fill="#ff4d00"/>
<path transform="translate(675,562)" d="m0 0 7 1 18 11 12 8 1 2h-9l-28-18-3-3z" fill="#ff4d00"/>
<path transform="translate(198,443)" d="m0 0 9 1 30 20-1 2-8-1-30-20z" fill="#ff4d00"/>
<path transform="translate(1981,422)" d="m0 0 11 7 16 10 5 5 2 7-11-7-18-12-5-5z" fill="#ff4d00"/>
<path transform="translate(1277,631)" d="m0 0h8l20 13 11 7v2h-7l-9-5-15-10-8-6z" fill="#ff4d00"/>
<path transform="translate(617,630)" d="m0 0 10 2 22 14 8 6v1h-7l-11-6-22-15z" fill="#ff4d00"/>
<path transform="translate(597,630)" d="m0 0 9 1 30 20v2h-7l-16-10-16-11z" fill="#ff4d00"/>
<path transform="translate(637,630)" d="m0 0 10 2 16 10 14 10v1h-7l-9-5-24-16z" fill="#ff4d00"/>
<path transform="translate(325,630)" d="m0 0 10 2 29 19v2h-7l-18-11-14-10z" fill="#ff4d00"/>
<path transform="translate(678,588)" d="m0 0 4 1 14 9 8 7 10 7 1 5-9-5-27-18z" fill="#ff4d00"/>
<path transform="translate(515,422)" d="m0 0 9 5 12 8 10 7 3 6v2l-4-2-23-15-6-4z" fill="#ff4d00"/>
<path transform="translate(1583,415)" d="m0 0h8l18 11 14 9v2h-8l-22-14-10-7z" fill="#ff4d00"/>
<path transform="translate(1851,630)" d="m0 0 10 2 21 14 8 6v1h-7l-12-7-18-12z" fill="#ff4d00"/>
<path transform="translate(1611,630)" d="m0 0 10 2 23 15 7 5v1h-8l-18-11-11-8-3-2z" fill="#ff4d00"/>
<path transform="translate(1377,630)" d="m0 0 10 2 15 10 14 9v2h-7l-15-9-16-11z" fill="#ff4d00"/>
<path transform="translate(1297,630)" d="m0 0 10 2 12 8 17 11v2h-7l-15-9-16-11z" fill="#ff4d00"/>
<path transform="translate(1130,604)" d="m0 0 5 2 19 12 9 7 2 7-9-5-22-15-3-4z" fill="#ff4d00"/>
<path transform="translate(391,556)" d="m0 0h8l18 11 10 7 3 2v2h-7l-18-11-14-10z" fill="#ff4d00"/>
<path transform="translate(37,443)" d="m0 0 9 1 16 10 14 9-1 3-9-2-27-18z" fill="#ff4d00"/>
<path transform="translate(1603,415)" d="m0 0h8l12 7 19 13 1 2h-8l-22-14-10-7z" fill="#ff4d00"/>
<path transform="translate(1591,631)" d="m0 0h8l16 10 15 10 1 2h-8l-18-11-10-7z" fill="#ff4d00"/>
<path transform="translate(1511,630)" d="m0 0 10 2 23 15 6 4v2h-7l-16-10-15-10z" fill="#ff4d00"/>
<path transform="translate(162,630)" d="m0 0 10 2 12 8 17 11-1 2-8-1-16-10-14-10z" fill="#ff4d00"/>
<path transform="translate(122,630)" d="m0 0 10 2 15 10 14 9v2h-7l-15-9-16-11z" fill="#ff4d00"/>
<path transform="translate(798,521)" d="m0 0 9 5 22 15 3 6v2l-5-2-10-7-14-9-4-5z" fill="#ff4d00"/>
<path transform="translate(1397,630)" d="m0 0 10 2 15 10 14 9v2h-7l-18-11-14-10z" fill="#ff4d00"/>
<path transform="translate(142,631)" d="m0 0h8l17 11 15 10v1h-8l-12-7-19-13z" fill="#ff4d00"/>
<path transform="translate(102,630)" d="m0 0 10 2 15 10 14 9v2h-7l-9-5-22-15z" fill="#ff4d00"/>
<path transform="translate(1830,630)" d="m0 0 11 2 21 14 8 5v2h-7l-9-5-22-15z" fill="#ff4d00"/>
<path transform="translate(1811,630)" d="m0 0 9 2 19 12 10 7 1 2h-7l-9-5-18-12-5-4z" fill="#ff4d00"/>
<path transform="translate(81,630)" d="m0 0 9 1 23 15 8 5v2h-7l-15-9-18-12z" fill="#ff4d00"/>
<path transform="translate(789,503)" d="m0 0 4 1 25 16 5 6 1 5-7-4-25-17z" fill="#ff4d00"/>
<path transform="translate(1863,415)" d="m0 0h7l9 5 17 11 6 4v2h-7l-15-9-16-11z" fill="#ff4d00"/>
<path transform="translate(1417,631)" d="m0 0h7l9 5 15 10 8 5v2h-7l-15-9-16-11z" fill="#ff4d00"/>
<path transform="translate(1790,630)" d="m0 0 9 1 27 18 4 4h-7l-9-5-24-16z" fill="#ff4d00"/>
<path transform="translate(1846,478)" d="m0 0 11 7 16 10 9 6v2h-7l-18-11-11-8z" fill="#ff4d00"/>
<path transform="translate(739,391)" d="m0 0 5 1 27 18 3 6-1 3-14-10-14-9-5-6z" fill="#ff4d00"/>
<path transform="translate(1651,630)" d="m0 0 10 2 17 11 12 8 1 2h-7l-11-6-22-15z" fill="#ff4d00"/>
<path transform="translate(1237,630)" d="m0 0 10 2 21 14 8 5v2h-7l-9-5-22-15z" fill="#ff4d00"/>
<path transform="translate(1571,630)" d="m0 0 10 2 23 15 6 4v2h-7l-16-10-16-11z" fill="#ff4d00"/>
<path transform="translate(693,562)" d="m0 0 9 1 16 10 15 10v1h-9l-26-17-5-3z" fill="#ff4d00"/>
<path transform="translate(1579,553)" d="m0 0 5 2 22 14 8 5-1 3-9-2-24-16-1-1z" fill="#ff4d00"/>
<path transform="translate(1429,415)" d="m0 0h8l16 10 15 10 1 2h-8l-19-12-13-9z" fill="#ff4d00"/>
<path transform="translate(397,415)" d="m0 0h8l16 10 15 10 1 2h-8l-19-12-13-9z" fill="#ff4d00"/>
<path transform="translate(1032,412)" d="m0 0 9 1 12 7 18 12v2h-7l-16-10-15-10z" fill="#ff4d00"/>
<path transform="translate(1030,634)" d="m0 0 9 1 25 16 6 5-4 1-8-3-16-10-12-8z" fill="#ff4d00"/>
<path transform="translate(1551,630)" d="m0 0 10 2 23 15 7 5v1h-7l-8-4-25-17z" fill="#ff4d00"/>
<path transform="translate(1993,630)" d="m0 0 6 1 14 9 15 10 3 3h-8l-19-12-12-8-1-2z" fill="#ff4d00"/>
<path transform="translate(1257,630)" d="m0 0 10 2 21 14 8 6v1h-7l-15-9-16-11z" fill="#ff4d00"/>
<path transform="translate(777,630)" d="m0 0 10 2 19 12 11 8v1h-7l-9-5-24-16z" fill="#ff4d00"/>
<path transform="translate(527,630)" d="m0 0 7 1 27 18 5 3v1h-9l-25-16-6-5z" fill="#ff4d00"/>
<path transform="translate(798,630)" d="m0 0 9 2 16 10 12 8 2 3h-7l-9-5-22-15z" fill="#ff4d00"/>
<path transform="translate(1857,556)" d="m0 0h8l17 11 12 8 2 3h-7l-18-11-13-9z" fill="#ff4d00"/>
<path transform="translate(1614,528)" d="m0 0h9l16 10 12 8-1 3-7-1-29-19z" fill="#ff4d00"/>
<path transform="translate(1594,528)" d="m0 0h9l25 16 6 4v1h-9l-16-10-15-10z" fill="#ff4d00"/>
<path transform="translate(756,428)" d="m0 0 5 2 26 17 4 7v2l-5-2-11-8-14-9-4-5z" fill="#ff4d00"/>
<path transform="translate(748,409)" d="m0 0 11 7 16 10 5 4 2 4v3l-5-2-11-8-14-9-4-6z" fill="#ff4d00"/>
<path transform="translate(773,465)" d="m0 0 11 7 16 10 5 4 2 4v3l-4-2-20-13-8-6-2-4z" fill="#ff4d00"/>
<path transform="translate(54,415)" d="m0 0h7l14 8 14 10v5l-4-1-30-20z" fill="#ff4d00"/>
<path transform="translate(1701,372)" d="m0 0 6 2 31 21v5l-5-2-10-7-21-14z" fill="#ff4d00"/>
<path transform="translate(1126,461)" d="m0 0h9l26 17 5 4h-9l-16-10-15-10z" fill="#ff4d00"/>
<path transform="translate(1289,415)" d="m0 0h7l11 6 16 11v4l-3 1-30-20z" fill="#ff4d00"/>
<path transform="translate(232,372)" d="m0 0 5 2 23 15 8 6 1 5-5-2-15-10-16-11z" fill="#ff4d00"/>
<path transform="translate(1106,461)" d="m0 0h8l12 7 15 10 5 4h-8l-11-6-18-12z" fill="#ff4d00"/>
<path transform="translate(700,483)" d="m0 0 11 6 16 11 5 7-3 1-17-11-12-8-1-5z" fill="#ff4d00"/>
<path transform="translate(764,446)" d="m0 0 9 5 22 15 3 5 1 3-5-2-15-10-10-7-5-7z" fill="#ff4d00"/>
<path transform="translate(806,540)" d="m0 0 5 2 24 16 4 4 1 5-5-2-18-12-8-6z" fill="#ff4d00"/>
<path transform="translate(1007,632)" d="m0 0 8 1 11 6 18 12v2l-9-2-10-5-18-12z" fill="#ff4d00"/>
<path transform="translate(1635,527)" d="m0 0 10 2 15 10 11 7v1h-9l-19-12-9-6z" fill="#ff4d00"/>
<path transform="translate(732,374)" d="m0 0 6 3 15 10 11 8 3 6-4-1-27-18-4-6z" fill="#ff4d00"/>
<path transform="translate(1884,416)" d="m0 0 8 1 12 6 12 9 3 3v2l-6-1-16-10-12-8z" fill="#ff4d00"/>
<path transform="translate(418,416)" d="m0 0 9 1 11 6 14 10 1 4-6-1-23-15-6-4z" fill="#ff4d00"/>
<path transform="translate(1288,423)" d="m0 0 5 2 22 15 2 3-2 2-5-1-13-9-9-6z" fill="#ff4d00"/>
<path transform="translate(713,562)" d="m0 0 9 1 18 11 4 4 1 4h-4l-27-18z" fill="#ff4d00"/>
<path transform="translate(695,494)" d="m0 0 5 1 21 14 4 4h-8l-15-9-8-5z" fill="#ff4d00"/>
<path transform="translate(1310,398)" d="m0 0 5 2 14 9 2 6h7l-1 5-4-1-20-13-3-2z" fill="#ff4d00"/>
<path transform="translate(20,443)" d="m0 0 6 1 16 10 15 10v2l-6-1-12-7-19-13z" fill="#ff4d00"/>
<path transform="translate(1219,630)" d="m0 0 6 1 23 15 8 6v1l-7-1-11-7-15-10-4-3z" fill="#ff4d00"/>
<path transform="translate(380,558)" d="m0 0 6 2 10 7 11 7 1 2h-9l-15-10-4-3z" fill="#ff4d00"/>
<path transform="translate(481,545)" d="m0 0 5 2 21 14 4 4-2 2-5-1-12-8-5-4z" fill="#ff4d00"/>
<path transform="translate(1947,545)" d="m0 0 5 2 11 8 13 8-1 4-5-1-15-10-7-8z" fill="#ff4d00"/>
<path transform="translate(1670,443)" d="m0 0 6 1 26 17 4 3v2l-6-1-30-20z" fill="#ff4d00"/>
<path transform="translate(1846,558)" d="m0 0 10 5 15 10 3 3h-9l-18-12-2-5z" fill="#ff4d00"/>
<path transform="translate(154,415)" d="m0 0h7l11 6 9 7v5l-5-2-21-14z" fill="#ff4d00"/>
<path transform="translate(1624,415)" d="m0 0h7l10 6 9 7v5l-8-4-16-11z" fill="#ff4d00"/>
<path transform="translate(814,559)" d="m0 0 4 1 17 11 5 4v2l-8-1-15-10z" fill="#ff4d00"/>
<path transform="translate(1288,436)" d="m0 0 11 6 11 8-3 4-5-2-11-8-3-2z" fill="#ff4d00"/>
<path transform="translate(1311,411)" d="m0 0 11 7 9 6-1 4-5-1-14-9-1-1v-5z" fill="#ff4d00"/>
<path transform="translate(508,406)" d="m0 0 10 6 12 9 7 7v2l-4-2-21-14-4-5z" fill="#ff4d00"/>
<path transform="translate(1973,407)" d="m0 0 5 1 16 12 7 6 2 4-5-2-19-13-6-7z" fill="#ff4d00"/>
<path transform="translate(1310,385)" d="m0 0 5 2 15 10v6l-8-4-11-8-1-1z" fill="#ff4d00"/>
<path transform="translate(1310,596)" d="m0 0 5 2 15 10v6l-8-4-12-9z" fill="#ff4d00"/>
<path transform="translate(734,562)" d="m0 0 9 1 16 11v3l-7-1-18-12z" fill="#ff4d00"/>
<path transform="translate(1310,609)" d="m0 0 5 2 15 10v5l-4-1-14-9-2-2z" fill="#ff4d00"/>
<path transform="translate(1310,372)" d="m0 0 5 2 15 10v6l-9-5-11-8z" fill="#ff4d00"/>
<path transform="translate(704,473)" d="m0 0 5 2 10 7 4 6v2l-5-2-15-10z" fill="#ff4d00"/>
<path transform="translate(969,550)" d="m0 0 9 5 17 12 1 4-12-6-11-9-4-4z" fill="#ff4d00"/>
<path transform="translate(1579,461)" d="m0 0 4 1 17 11v1h-9l-12-8z" fill="#ff4d00"/>
<path transform="translate(1310,583)" d="m0 0 6 2 8 6 1 6-4-1-11-7z" fill="#ff4d00"/>
<path transform="translate(147,564)" d="m0 0 5 2 12 8v3l-8-1-8-6z" fill="#ff4d00"/>
<path transform="translate(380,491)" d="m0 0 12 7 5 3v2h-7l-8-4-2-2z" fill="#ff4d00"/>
<path transform="translate(1846,492)" d="m0 0 5 2 11 7 1 2h-7l-7-3-3-3z" fill="#ff4d00"/>
<path transform="translate(1288,449)" d="m0 0 9 5 5 5-2 3-5-2-7-5z" fill="#ff4d00"/>
<path transform="translate(1579,566)" d="m0 0 5 2 10 7v1h-9l-6-4z" fill="#ff4d00"/>
<path transform="translate(691,504)" d="m0 0 5 2 9 6v1h-8l-7-4z" fill="#ff4d00"/>
<path transform="translate(74,415)" d="m0 0h7l7 4 1 6-5-2-10-7z" fill="#ff4d00"/>
<path transform="translate(1288,568)" d="m0 0 5 2 7 5-4 2-8-2z" fill="#ff4d00"/>
<path transform="translate(176,583)" d="m0 0 7 4 1 5-6-2-3-3z" fill="#ff4d00"/>
<path transform="translate(1357,521)" d="m0 0 5 2 9 7-1 3-4-2-9-9z" fill="#ff4d00"/>
<path transform="translate(1337,630)" d="m0 0 9 1 1 7-4-2-6-4z" fill="#ff4d00"/>
<path transform="translate(709,463)" d="m0 0 3 1 3 6-1 2-7-5z" fill="#ff4d00"/>
<path transform="translate(1288,463)" d="m0 0 5 2 1 4-4 1-2-2z" fill="#ff4d00"/>
<path transform="translate(1287,530)" d="m0 0 4 2 7 7h-3l-6-4z" fill="#ff4d00"/>
<path transform="translate(380,571)" d="m0 0 5 2 3 3h-8z" fill="#ff4d00"/>
<path transform="translate(1877,556)" d="m0 0 5 1 4 4v2l-4-2z" fill="#ff4d00"/>
<path transform="translate(1846,571)" d="m0 0 6 3 1 2h-7z" fill="#ff4d00"/>
<path transform="translate(412,556)" d="m0 0 5 2 4 5-5-2-4-3z" fill="#ff4d00"/>
<path transform="translate(175,415)" d="m0 0h5l1 4-5-1z" fill="#ff4d00"/>
<path transform="translate(1644,415)" d="m0 0h5l1 4-5-1z" fill="#ff4d00"/>
<path transform="translate(415,581)" d="m0 0 2 1-1 4h-1z" fill="#ff4d00"/>
<path transform="translate(1881,581)" d="m0 0h1v5h-1z" fill="#ff4d00"/>
<path transform="translate(1276,630)" d="m0 0" fill="#ff4d00"/>
<path transform="translate(1886,563)" d="m0 0" fill="#ff4d00"/>
<path transform="translate(1298,540)" d="m0 0" fill="#ff4d00"/>
<path transform="translate(1356,520)" d="m0 0" fill="#ff4d00"/>
</svg>
